<svg width="21" height="20" viewBox="0 0 21 20" fill="none" xmlns="http://www.w3.org/2000/svg">
<path d="M9.66666 14.1667H11.3333V10.8333H14.6667V9.16666H11.3333V5.83332H9.66666V9.16666H6.33333V10.8333H9.66666V14.1667ZM10.5 18.3333C9.34722 18.3333 8.26389 18.1146 7.25 17.6771C6.23611 17.2396 5.35416 16.6458 4.60416 15.8958C3.85416 15.1458 3.26041 14.2639 2.82291 13.25C2.38541 12.2361 2.16666 11.1528 2.16666 9.99999C2.16666 8.84721 2.38541 7.76388 2.82291 6.74999C3.26041 5.7361 3.85416 4.85416 4.60416 4.10416C5.35416 3.35416 6.23611 2.76041 7.25 2.32291C8.26389 1.88541 9.34722 1.66666 10.5 1.66666C11.6528 1.66666 12.7361 1.88541 13.75 2.32291C14.7639 2.76041 15.6458 3.35416 16.3958 4.10416C17.1458 4.85416 17.7396 5.7361 18.1771 6.74999C18.6146 7.76388 18.8333 8.84721 18.8333 9.99999C18.8333 11.1528 18.6146 12.2361 18.1771 13.25C17.7396 14.2639 17.1458 15.1458 16.3958 15.8958C15.6458 16.6458 14.7639 17.2396 13.75 17.6771C12.7361 18.1146 11.6528 18.3333 10.5 18.3333ZM10.5 16.6667C12.3611 16.6667 13.9375 16.0208 15.2292 14.7292C16.5208 13.4375 17.1667 11.8611 17.1667 9.99999C17.1667 8.13888 16.5208 6.56249 15.2292 5.27082C13.9375 3.97916 12.3611 3.33332 10.5 3.33332C8.63889 3.33332 7.0625 3.97916 5.77083 5.27082C4.47916 6.56249 3.83333 8.13888 3.83333 9.99999C3.83333 11.8611 4.47916 13.4375 5.77083 14.7292C7.0625 16.0208 8.63889 16.6667 10.5 16.6667Z" fill="black"/>
</svg>
